<?xml version="1.0" encoding="UTF-8" standalone="no"?>
<svg
    id="fact_loading"
    x="0px"
    y="0px"
    width="320"
    height="120"
    viewBox="0 0 1000 445"
    xmlns="http://www.w3.org/2000/svg"
>
    <style>
        @keyframes rotatePause {
            0% {
                transform: rotate(0deg);
            }
            90% {
                transform: rotate(360deg);
            }
            100% {
                transform: rotate(360deg);
            }
        }
        .spinToWin {
            animation: rotatePause 2s ease-in-out infinite;
            transform-origin: 605px 200px;
        }
    </style>
    <defs id="defs167"/>
    <path
        id="T"
        style="fill:#69c0ac;stroke-width:1.28089"
        d="m 754.67188,65.878906 c 11.87512,13.059947 22.04566,27.700095 30.15624,43.570314 h 76.84961 0.0469 c 29.91681,76.59729 23.68741,162.17115 -30.16016,225.11328 h 55.07227 c 43.15499,-65.17581 46.77122,-151.5637 22.92578,-225.11328 h 81.97656 C 985.3549,94.088794 977.65703,79.501164 968.61523,65.878906 Z"
    />
    <g id="cGroup" class="spinToWin">
        <path
            id="C"
            style="fill:#009879;stroke-width:1.28089"
            d="m 606.91992,22.308594 c -98.25819,0 -177.91406,79.653906 -177.91406,177.912106 0,98.25692 79.65587,177.91211 177.91406,177.91211 49.15579,0 93.65537,-19.93662 125.85547,-52.16406 L 701.42383,295.625 c -24.2928,24.06644 -57.68871,38.95898 -94.50391,38.95898 -74.08655,0 -134.36328,-60.27543 -134.36328,-134.36328 0,-74.08655 60.27545,-134.361325 134.36328,-134.361325 36.8183,0 70.21477,14.895889 94.50781,38.964845 L 732.77539,74.474609 C 700.57508,42.246737 656.07622,22.308594 606.91992,22.308594 Z"
        />
        <path
            id="cMagnifyingGlassHandle"
            style="display:inline;fill:#d8d8d8;fill-opacity:1;stroke:none;stroke-width:1.32907"
            d="m 732.77539,74.474609 -31.34765,30.349611 c 24.59075,24.36392 39.85351,58.12762 39.85351,95.39648 0,37.27197 -15.26364,71.03968 -39.85743,95.4043 l 31.35157,30.34375 c 27.32984,-27.35304 45.74691,-63.57677 50.68164,-103.96485 h 172.6875 V 178.43555 H 783.45703 C 778.52191,138.04889 760.10422,101.82684 732.77539,74.474609 Z"
        />
    </g>
    <path
        d="m 404.0928,334.56417 h 55.07446 c -32.27332,-35.47042 -51.94908,-82.60847 -51.94908,-134.34236 0,-51.73389 19.67576,-98.87067 51.9478,-134.342372 H 225.62119 c -25.5512,38.495882 -40.44668,84.675832 -40.44668,134.342372 0,49.66653 14.89548,95.84776 40.44668,134.34236 h 55.07446 C 253.0156,304.14174 234.61561,265.13222 229.93523,222.00591 h 134.68309 c 3.67359,41.36636 17.70191,79.75338 39.47448,112.55826 z M 381.16742,109.44893 c -8.71005,21.6304 -14.40105,44.79787 -16.5491,68.98621 H 229.93523 c 2.67066,-24.61488 9.81034,-47.8861 20.59929,-68.98621 z"
        id="A"
        style="fill:#69c0ac"
    />
    <path
        id="F"
        d="m 159.833,78.978 c 4.565,-11.936 10.249,-23.316 16.925,-34.016 H 42.977 C 23.03,75.017 11.4,111.07 11.4,149.844 c 0,38.775 11.629,74.829 31.577,104.882 H 85.974 C 64.364,230.975 49.999,200.52 46.345,166.851 h 50.682 c -0.808262,-12.02344 -0.757462,-22.78098 0,-34.015 H 46.345 C 48.43,113.619 54.004,95.451 62.427,78.978 Z"
        style="fill:#69c0ac"
        transform="matrix(1.2808906,0,0,1.2808906,-14.602153,8.2867544)"
    />
    <text
        style="font-style:normal;font-variant:normal;font-weight:normal;font-stretch:normal;font-size:60px;font-family:'Liberation Sans';-inkscape-font-specification:'Liberation Sans, Normal';font-variant-ligatures:normal;font-variant-caps:normal;font-variant-numeric:normal;font-variant-east-asian:normal;text-align:start;writing-mode:lr-tb;direction:ltr;text-anchor:start;fill:#009879;fill-opacity:1"
        x="406.4895"
        y="419.3143"
        id="text1"
    >
        <tspan id="tspan1" x="280" y="420">Loading...</tspan>
    </text>
</svg>
