<?xml version="1.0" encoding="UTF-8" standalone="no"?>
<!-- Generator: Adobe Illustrator 16.0.0, SVG Export Plug-In . SVG Version: 6.00 Build 0)  -->

<svg
   version="1.1"
   id="Ebene_2_Kopie_Kopie"
   x="0px"
   y="0px"
   width="1000"
   height="445"
   viewBox="0 0 999.99997 445.00001"
   enable-background="new 0 0 797.96 356.982"
   xml:space="preserve"
   inkscape:version="1.3.1 (9b9bdc1480, 2023-11-25, custom)"
   sodipodi:docname="fact_logo_invertable.svg"
   inkscape:export-filename="/home/dorp/work/firmwareanalyseframework/src/web_interface/static/FACT_Logo.png"
   inkscape:export-xdpi="90"
   inkscape:export-ydpi="90"
   xmlns:inkscape="http://www.inkscape.org/namespaces/inkscape"
   xmlns:sodipodi="http://sodipodi.sourceforge.net/DTD/sodipodi-0.dtd"
   xmlns="http://www.w3.org/2000/svg"
   xmlns:svg="http://www.w3.org/2000/svg"
   xmlns:rdf="http://www.w3.org/1999/02/22-rdf-syntax-ns#"
   xmlns:cc="http://creativecommons.org/ns#"
   xmlns:dc="http://purl.org/dc/elements/1.1/"><metadata
     id="metadata169"><rdf:RDF><cc:Work
         rdf:about=""><dc:format>image/svg+xml</dc:format><dc:type
           rdf:resource="http://purl.org/dc/dcmitype/StillImage" /></cc:Work></rdf:RDF></metadata><defs
     id="defs167" /><sodipodi:namedview
     pagecolor="#ffffff"
     bordercolor="#666666"
     borderopacity="1"
     objecttolerance="10"
     gridtolerance="10"
     guidetolerance="10"
     inkscape:pageopacity="0"
     inkscape:pageshadow="2"
     inkscape:window-width="2560"
     inkscape:window-height="1376"
     id="namedview165"
     showgrid="false"
     inkscape:zoom="1.4142136"
     inkscape:cx="414.71813"
     inkscape:cy="204.35386"
     inkscape:window-x="0"
     inkscape:window-y="0"
     inkscape:window-maximized="1"
     inkscape:current-layer="Ebene_2_Kopie_Kopie"
     inkscape:showpageshadow="0"
     inkscape:pagecheckerboard="0"
     inkscape:deskcolor="#d1d1d1" /><path
     id="path4"
     style="fill:#69c0ac;stroke-width:1.28089"
     d="M 926.08203 222.00391 L 882.29297 222.00391 C 877.61117 265.12771 859.243 304.14203 831.56445 334.5625 L 886.63672 334.5625 C 908.40774 301.76026 922.40635 263.36758 926.08203 222.00391 z " /><path
     id="path13"
     style="fill:#69c0ac;stroke-width:1.28089"
     d="M 754.67188 65.878906 C 766.547 78.938853 776.71753 93.579003 784.82812 109.44922 L 791.36523 109.44922 L 861.67773 109.44922 L 861.72461 109.44922 C 872.51336 130.5484 879.64056 153.8228 882.31445 178.43555 L 926.08008 178.43555 C 923.92876 154.25101 918.27177 131.07622 909.5625 109.44922 L 943.69922 109.44922 L 964.2832 109.44922 L 991.53906 109.44922 C 985.35492 94.088796 977.65703 79.501164 968.61523 65.878906 L 964.28516 65.878906 L 913.54102 65.878906 L 886.63672 65.878906 L 861.67773 65.878906 L 831.56445 65.878906 L 791.36523 65.878906 L 754.67188 65.878906 z " /><path
     id="path3"
     style="fill:#009879;stroke-width:1.28089"
     d="M 783.45508 222.01367 C 781.92728 234.51209 779.1016 246.60868 775.12695 258.16992 C 779.1095 246.60914 781.92704 234.5141 783.45508 222.01367 z " /><path
     id="path11"
     style="fill:#009879;stroke-width:1.28089"
     d="M 775.12109 142.25586 C 779.09975 153.82446 781.9287 165.92839 783.45703 178.43555 C 781.92868 165.92637 779.10729 153.82402 775.12109 142.25586 z " /><path
     id="path9"
     style="fill:#009879;stroke-width:1.28089"
     d="M 606.91992 22.308594 C 508.66173 22.308594 429.00586 101.9625 429.00586 200.2207 C 429.00586 298.47762 508.66173 378.13281 606.91992 378.13281 C 656.07571 378.13281 700.57529 358.19619 732.77539 325.96875 L 701.42383 295.625 C 677.13103 319.69144 643.73512 334.58398 606.91992 334.58398 C 532.83337 334.58398 472.55664 274.30855 472.55664 200.2207 C 472.55664 126.13415 532.83209 65.859375 606.91992 65.859375 C 643.73822 65.859375 677.13469 80.755264 701.42773 104.82422 L 732.77539 74.474609 C 700.57508 42.246737 656.07622 22.308594 606.91992 22.308594 z " /><g
     transform="matrix(1.2808906,0,0,1.2808906,-14.602153,8.2867544)"
     id="Binärcode_Kopie"
     style="fill:#009879;fill-opacity:1"><g
       id="F_2_"
       style="fill:#009879;fill-opacity:1"><path
         id="path33"
         d="m 419.858,82.406 h -6.423 c -2.282,0 -4.132,1.854 -4.132,4.132 v 12.858 c 0,2.274 1.85,4.128 4.132,4.128 h 6.423 c 2.279,0 4.132,-1.854 4.132,-4.128 V 86.539 c 0,-2.279 -1.853,-4.133 -4.132,-4.133 z m 1.38,16.99 c 0,0.762 -0.617,1.376 -1.38,1.376 h -6.423 c -0.762,0 -1.376,-0.614 -1.376,-1.376 V 86.539 c 0,-0.758 0.614,-1.372 1.376,-1.372 h 6.423 c 0.763,0 1.38,0.613 1.38,1.372 z"
         inkscape:connector-curvature="0"
         style="fill:#009879;fill-opacity:1" /><path
         id="path35"
         d="m 456.858,82.406 h -6.423 c -2.282,0 -4.132,1.854 -4.132,4.132 v 12.858 c 0,2.274 1.85,4.128 4.132,4.128 h 6.423 c 2.279,0 4.132,-1.854 4.132,-4.128 V 86.539 c 0,-2.279 -1.853,-4.133 -4.132,-4.133 z m 1.38,16.99 c 0,0.762 -0.617,1.376 -1.38,1.376 h -6.423 c -0.762,0 -1.376,-0.614 -1.376,-1.376 V 86.539 c 0,-0.758 0.614,-1.372 1.376,-1.372 h 6.423 c 0.763,0 1.38,0.613 1.38,1.372 z"
         inkscape:connector-curvature="0"
         style="fill:#009879;fill-opacity:1" /><path
         id="path37"
         d="m 475.525,82.406 h -6.423 c -2.282,0 -4.132,1.854 -4.132,4.132 v 12.858 c 0,2.274 1.85,4.128 4.132,4.128 h 6.423 c 2.279,0 4.132,-1.854 4.132,-4.128 V 86.539 c 0,-2.279 -1.853,-4.133 -4.132,-4.133 z m 1.38,16.99 c 0,0.762 -0.617,1.376 -1.38,1.376 h -6.423 c -0.762,0 -1.376,-0.614 -1.376,-1.376 V 86.539 c 0,-0.758 0.614,-1.372 1.376,-1.372 h 6.423 c 0.763,0 1.38,0.613 1.38,1.372 z"
         inkscape:connector-curvature="0"
         style="fill:#009879;fill-opacity:1" /><path
         id="path39"
         d="m 494.525,82.406 h -6.423 c -2.282,0 -4.132,1.854 -4.132,4.132 v 12.858 c 0,2.274 1.85,4.128 4.132,4.128 h 6.423 c 2.279,0 4.132,-1.854 4.132,-4.128 V 86.539 c 0,-2.279 -1.853,-4.133 -4.132,-4.133 z m 1.38,16.99 c 0,0.762 -0.617,1.376 -1.38,1.376 h -6.423 c -0.762,0 -1.376,-0.614 -1.376,-1.376 V 86.539 c 0,-0.758 0.614,-1.372 1.376,-1.372 h 6.423 c 0.763,0 1.38,0.613 1.38,1.372 z"
         inkscape:connector-curvature="0"
         style="fill:#009879;fill-opacity:1" /><path
         id="path41"
         d="m 550.859,82.406 h -6.423 c -2.282,0 -4.132,1.854 -4.132,4.132 v 12.858 c 0,2.274 1.85,4.128 4.132,4.128 h 6.423 c 2.279,0 4.132,-1.854 4.132,-4.128 V 86.539 c 0,-2.279 -1.853,-4.133 -4.132,-4.133 z m 1.38,16.99 c 0,0.762 -0.617,1.376 -1.38,1.376 h -6.423 c -0.762,0 -1.376,-0.614 -1.376,-1.376 V 86.539 c 0,-0.758 0.614,-1.372 1.376,-1.372 h 6.423 c 0.763,0 1.38,0.613 1.38,1.372 z"
         inkscape:connector-curvature="0"
         style="fill:#009879;fill-opacity:1" /><path
         id="path43"
         d="m 511.637,82.552 c -0.43,-0.222 -0.941,-0.188 -1.337,0.087 l -7.109,4.956 c -0.585,0.411 -0.731,1.213 -0.321,1.804 0.406,0.584 1.217,0.727 1.8,0.32 l 5.081,-3.54 v 16.054 c 0,0.712 0.58,1.292 1.292,1.292 0.716,0 1.296,-0.58 1.296,-1.292 V 83.701 c -0.006,-0.482 -0.272,-0.923 -0.702,-1.149 z"
         inkscape:connector-curvature="0"
         style="fill:#009879;fill-opacity:1" /><path
         id="path45"
         d="m 530.303,82.552 c -0.43,-0.222 -0.941,-0.188 -1.337,0.087 l -7.109,4.956 c -0.585,0.411 -0.731,1.213 -0.321,1.804 0.406,0.584 1.217,0.727 1.8,0.32 l 5.081,-3.54 v 16.054 c 0,0.712 0.58,1.292 1.292,1.292 0.716,0 1.296,-0.58 1.296,-1.292 V 83.701 C 531,83.219 530.733,82.778 530.303,82.552 Z"
         inkscape:connector-curvature="0"
         style="fill:#009879;fill-opacity:1" /><path
         id="path47"
         d="m 436.134,81.311 c -0.43,-0.223 -0.941,-0.189 -1.337,0.086 l -7.11,4.956 c -0.584,0.411 -0.73,1.212 -0.32,1.803 0.406,0.584 1.217,0.727 1.8,0.321 l 5.081,-3.541 v 16.055 c 0,0.711 0.58,1.292 1.292,1.292 0.716,0 1.295,-0.58 1.295,-1.292 V 82.459 c -0.004,-0.482 -0.271,-0.922 -0.701,-1.148 z"
         inkscape:connector-curvature="0"
         style="fill:#009879;fill-opacity:1" /></g><g
       id="A_2_"
       style="fill:#009879;fill-opacity:1"><path
         id="path50"
         d="m 400.857,120.405 h -6.423 c -2.282,0 -4.132,1.854 -4.132,4.132 v 12.858 c 0,2.274 1.85,4.128 4.132,4.128 h 6.423 c 2.279,0 4.132,-1.854 4.132,-4.128 v -12.858 c 0,-2.278 -1.853,-4.132 -4.132,-4.132 z m 1.38,16.991 c 0,0.762 -0.617,1.376 -1.38,1.376 h -6.423 c -0.762,0 -1.376,-0.614 -1.376,-1.376 v -12.858 c 0,-0.758 0.614,-1.372 1.376,-1.372 h 6.423 c 0.763,0 1.38,0.613 1.38,1.372 z"
         inkscape:connector-curvature="0"
         style="fill:#009879;fill-opacity:1" /><path
         id="path52"
         d="m 437.857,120.406 h -6.423 c -2.282,0 -4.132,1.854 -4.132,4.132 v 12.858 c 0,2.274 1.85,4.128 4.132,4.128 h 6.423 c 2.279,0 4.132,-1.854 4.132,-4.128 v -12.858 c 0,-2.278 -1.853,-4.132 -4.132,-4.132 z m 1.38,16.99 c 0,0.762 -0.617,1.376 -1.38,1.376 h -6.423 c -0.762,0 -1.376,-0.614 -1.376,-1.376 v -12.858 c 0,-0.758 0.614,-1.372 1.376,-1.372 h 6.423 c 0.763,0 1.38,0.613 1.38,1.372 z"
         inkscape:connector-curvature="0"
         style="fill:#009879;fill-opacity:1" /><path
         id="path54"
         d="m 456.524,120.406 h -6.423 c -2.282,0 -4.132,1.854 -4.132,4.132 v 12.858 c 0,2.274 1.85,4.128 4.132,4.128 h 6.423 c 2.279,0 4.132,-1.854 4.132,-4.128 v -12.858 c 0,-2.278 -1.853,-4.132 -4.132,-4.132 z m 1.38,16.99 c 0,0.762 -0.617,1.376 -1.38,1.376 h -6.423 c -0.762,0 -1.376,-0.614 -1.376,-1.376 v -12.858 c 0,-0.758 0.614,-1.372 1.376,-1.372 h 6.423 c 0.763,0 1.38,0.613 1.38,1.372 z"
         inkscape:connector-curvature="0"
         style="fill:#009879;fill-opacity:1" /><path
         id="path56"
         d="m 475.524,120.406 h -6.423 c -2.282,0 -4.132,1.854 -4.132,4.132 v 12.858 c 0,2.274 1.85,4.128 4.132,4.128 h 6.423 c 2.279,0 4.132,-1.854 4.132,-4.128 v -12.858 c 0,-2.278 -1.853,-4.132 -4.132,-4.132 z m 1.38,16.99 c 0,0.762 -0.617,1.376 -1.38,1.376 h -6.423 c -0.762,0 -1.376,-0.614 -1.376,-1.376 v -12.858 c 0,-0.758 0.614,-1.372 1.376,-1.372 h 6.423 c 0.763,0 1.38,0.613 1.38,1.372 z"
         inkscape:connector-curvature="0"
         style="fill:#009879;fill-opacity:1" /><path
         id="path58"
         d="m 494.191,120.406 h -6.423 c -2.282,0 -4.132,1.854 -4.132,4.132 v 12.858 c 0,2.274 1.85,4.128 4.132,4.128 h 6.423 c 2.279,0 4.132,-1.854 4.132,-4.128 v -12.858 c 0,-2.278 -1.853,-4.132 -4.132,-4.132 z m 1.38,16.99 c 0,0.762 -0.617,1.376 -1.38,1.376 h -6.423 c -0.762,0 -1.376,-0.614 -1.376,-1.376 v -12.858 c 0,-0.758 0.614,-1.372 1.376,-1.372 h 6.423 c 0.763,0 1.38,0.613 1.38,1.372 z"
         inkscape:connector-curvature="0"
         style="fill:#009879;fill-opacity:1" /><path
         id="path60"
         d="m 513.191,120.406 h -6.423 c -2.282,0 -4.132,1.854 -4.132,4.132 v 12.858 c 0,2.274 1.85,4.128 4.132,4.128 h 6.423 c 2.279,0 4.132,-1.854 4.132,-4.128 v -12.858 c 0,-2.278 -1.853,-4.132 -4.132,-4.132 z m 1.38,16.99 c 0,0.762 -0.617,1.376 -1.38,1.376 h -6.423 c -0.762,0 -1.376,-0.614 -1.376,-1.376 v -12.858 c 0,-0.758 0.614,-1.372 1.376,-1.372 h 6.423 c 0.763,0 1.38,0.613 1.38,1.372 z"
         inkscape:connector-curvature="0"
         style="fill:#009879;fill-opacity:1" /><path
         id="path62"
         d="m 530.302,120.551 c -0.43,-0.222 -0.941,-0.188 -1.337,0.087 l -7.109,4.956 c -0.585,0.411 -0.731,1.213 -0.321,1.804 0.406,0.584 1.217,0.727 1.8,0.32 l 5.081,-3.54 v 16.054 c 0,0.712 0.58,1.292 1.292,1.292 0.716,0 1.296,-0.58 1.296,-1.292 V 121.7 c -0.005,-0.482 -0.272,-0.923 -0.702,-1.149 z"
         inkscape:connector-curvature="0"
         style="fill:#009879;fill-opacity:1" /><path
         id="path64"
         d="m 417.133,119.31 c -0.43,-0.223 -0.941,-0.189 -1.337,0.086 l -7.11,4.956 c -0.584,0.411 -0.73,1.212 -0.32,1.803 0.406,0.584 1.217,0.727 1.8,0.321 l 5.081,-3.541 v 16.055 c 0,0.711 0.58,1.292 1.292,1.292 0.716,0 1.295,-0.58 1.295,-1.292 v -18.532 c -0.004,-0.482 -0.271,-0.923 -0.701,-1.148 z"
         inkscape:connector-curvature="0"
         style="fill:#009879;fill-opacity:1" /></g><g
       id="C_1_"
       style="fill:#009879;fill-opacity:1"><path
         id="path67"
         d="m 438.859,159.739 h -6.423 c -2.282,0 -4.132,1.854 -4.132,4.132 v 12.858 c 0,2.274 1.85,4.128 4.132,4.128 h 6.423 c 2.279,0 4.132,-1.854 4.132,-4.128 v -12.858 c 0,-2.278 -1.853,-4.132 -4.132,-4.132 z m 1.38,16.99 c 0,0.762 -0.617,1.376 -1.38,1.376 h -6.423 c -0.762,0 -1.376,-0.614 -1.376,-1.376 v -12.858 c 0,-0.758 0.614,-1.372 1.376,-1.372 h 6.423 c 0.763,0 1.38,0.613 1.38,1.372 z"
         inkscape:connector-curvature="0"
         style="fill:#009879;fill-opacity:1" /><path
         id="path69"
         d="m 475.859,159.739 h -6.423 c -2.282,0 -4.132,1.854 -4.132,4.132 v 12.858 c 0,2.274 1.85,4.128 4.132,4.128 h 6.423 c 2.279,0 4.132,-1.854 4.132,-4.128 v -12.858 c 0,-2.278 -1.853,-4.132 -4.132,-4.132 z m 1.38,16.99 c 0,0.762 -0.617,1.376 -1.38,1.376 h -6.423 c -0.762,0 -1.376,-0.614 -1.376,-1.376 v -12.858 c 0,-0.758 0.614,-1.372 1.376,-1.372 h 6.423 c 0.763,0 1.38,0.613 1.38,1.372 z"
         inkscape:connector-curvature="0"
         style="fill:#009879;fill-opacity:1" /><path
         id="path71"
         d="m 494.526,159.739 h -6.423 c -2.282,0 -4.132,1.854 -4.132,4.132 v 12.858 c 0,2.274 1.85,4.128 4.132,4.128 h 6.423 c 2.279,0 4.132,-1.854 4.132,-4.128 v -12.858 c 0,-2.278 -1.853,-4.132 -4.132,-4.132 z m 1.38,16.99 c 0,0.762 -0.617,1.376 -1.38,1.376 h -6.423 c -0.762,0 -1.376,-0.614 -1.376,-1.376 v -12.858 c 0,-0.758 0.614,-1.372 1.376,-1.372 h 6.423 c 0.763,0 1.38,0.613 1.38,1.372 z"
         inkscape:connector-curvature="0"
         style="fill:#009879;fill-opacity:1" /><path
         id="path73"
         d="m 513.526,159.739 h -6.423 c -2.282,0 -4.132,1.854 -4.132,4.132 v 12.858 c 0,2.274 1.85,4.128 4.132,4.128 h 6.423 c 2.279,0 4.132,-1.854 4.132,-4.128 v -12.858 c 0,-2.278 -1.853,-4.132 -4.132,-4.132 z m 1.38,16.99 c 0,0.762 -0.617,1.376 -1.38,1.376 h -6.423 c -0.762,0 -1.376,-0.614 -1.376,-1.376 v -12.858 c 0,-0.758 0.614,-1.372 1.376,-1.372 h 6.423 c 0.763,0 1.38,0.613 1.38,1.372 z"
         inkscape:connector-curvature="0"
         style="fill:#009879;fill-opacity:1" /><path
         id="path75"
         d="m 532.193,159.739 h -6.423 c -2.282,0 -4.132,1.854 -4.132,4.132 v 12.858 c 0,2.274 1.85,4.128 4.132,4.128 h 6.423 c 2.279,0 4.132,-1.854 4.132,-4.128 v -12.858 c 0,-2.278 -1.853,-4.132 -4.132,-4.132 z m 1.38,16.99 c 0,0.762 -0.617,1.376 -1.38,1.376 h -6.423 c -0.762,0 -1.376,-0.614 -1.376,-1.376 v -12.858 c 0,-0.758 0.614,-1.372 1.376,-1.372 h 6.423 c 0.763,0 1.38,0.613 1.38,1.372 z"
         inkscape:connector-curvature="0"
         style="fill:#009879;fill-opacity:1" /><path
         id="path77"
         d="m 568.304,159.884 c -0.43,-0.222 -0.941,-0.188 -1.337,0.087 l -7.109,4.956 c -0.585,0.411 -0.731,1.213 -0.321,1.804 0.406,0.584 1.217,0.727 1.8,0.32 l 5.081,-3.54 v 16.054 c 0,0.712 0.58,1.292 1.292,1.292 0.716,0 1.296,-0.58 1.296,-1.292 v -18.532 c -0.006,-0.482 -0.272,-0.923 -0.702,-1.149 z"
         inkscape:connector-curvature="0"
         style="fill:#009879;fill-opacity:1" /><path
         id="path79"
         d="m 549.637,159.884 c -0.43,-0.222 -0.941,-0.188 -1.337,0.087 l -7.109,4.956 c -0.585,0.411 -0.731,1.213 -0.321,1.804 0.406,0.584 1.217,0.727 1.8,0.32 l 5.081,-3.54 v 16.054 c 0,0.712 0.58,1.292 1.292,1.292 0.716,0 1.296,-0.58 1.296,-1.292 v -18.532 c -0.006,-0.482 -0.272,-0.923 -0.702,-1.149 z"
         inkscape:connector-curvature="0"
         style="fill:#009879;fill-opacity:1" /><path
         id="path81"
         d="m 455.135,158.643 c -0.43,-0.223 -0.941,-0.189 -1.337,0.086 l -7.11,4.956 c -0.584,0.411 -0.73,1.212 -0.32,1.803 0.406,0.584 1.217,0.727 1.8,0.321 l 5.081,-3.541 v 16.055 c 0,0.711 0.58,1.292 1.292,1.292 0.716,0 1.295,-0.58 1.295,-1.292 v -18.532 c -0.004,-0.482 -0.271,-0.922 -0.701,-1.148 z"
         inkscape:connector-curvature="0"
         style="fill:#009879;fill-opacity:1" /></g><g
       id="T_2_"
       style="fill:#009879;fill-opacity:1"><path
         id="path84"
         d="m 419.858,197.405 h -6.423 c -2.282,0 -4.132,1.854 -4.132,4.132 v 12.859 c 0,2.274 1.85,4.128 4.132,4.128 h 6.423 c 2.279,0 4.132,-1.854 4.132,-4.128 v -12.859 c 0,-2.278 -1.853,-4.132 -4.132,-4.132 z m 1.38,16.991 c 0,0.763 -0.617,1.376 -1.38,1.376 h -6.423 c -0.762,0 -1.376,-0.613 -1.376,-1.376 v -12.859 c 0,-0.758 0.614,-1.372 1.376,-1.372 h 6.423 c 0.763,0 1.38,0.613 1.38,1.372 z"
         inkscape:connector-curvature="0"
         style="fill:#009879;fill-opacity:1" /><path
         id="path86"
         d="m 456.858,197.407 h -6.423 c -2.282,0 -4.132,1.854 -4.132,4.132 v 12.858 c 0,2.274 1.85,4.128 4.132,4.128 h 6.423 c 2.279,0 4.132,-1.854 4.132,-4.128 v -12.858 c 0,-2.279 -1.853,-4.132 -4.132,-4.132 z m 1.38,16.99 c 0,0.763 -0.617,1.376 -1.38,1.376 h -6.423 c -0.762,0 -1.376,-0.613 -1.376,-1.376 v -12.858 c 0,-0.758 0.614,-1.372 1.376,-1.372 h 6.423 c 0.763,0 1.38,0.613 1.38,1.372 z"
         inkscape:connector-curvature="0"
         style="fill:#009879;fill-opacity:1" /><path
         id="path88"
         d="m 532.525,197.407 h -6.423 c -2.282,0 -4.132,1.854 -4.132,4.132 v 12.858 c 0,2.274 1.85,4.128 4.132,4.128 h 6.423 c 2.279,0 4.132,-1.854 4.132,-4.128 v -12.858 c 0,-2.279 -1.853,-4.132 -4.132,-4.132 z m 1.38,16.99 c 0,0.763 -0.617,1.376 -1.38,1.376 h -6.423 c -0.762,0 -1.376,-0.613 -1.376,-1.376 v -12.858 c 0,-0.758 0.614,-1.372 1.376,-1.372 h 6.423 c 0.763,0 1.38,0.613 1.38,1.372 z"
         inkscape:connector-curvature="0"
         style="fill:#009879;fill-opacity:1" /><path
         id="path90"
         d="m 494.525,197.407 h -6.423 c -2.282,0 -4.132,1.854 -4.132,4.132 v 12.858 c 0,2.274 1.85,4.128 4.132,4.128 h 6.423 c 2.279,0 4.132,-1.854 4.132,-4.128 v -12.858 c 0,-2.279 -1.853,-4.132 -4.132,-4.132 z m 1.38,16.99 c 0,0.763 -0.617,1.376 -1.38,1.376 h -6.423 c -0.762,0 -1.376,-0.613 -1.376,-1.376 v -12.858 c 0,-0.758 0.614,-1.372 1.376,-1.372 h 6.423 c 0.763,0 1.38,0.613 1.38,1.372 z"
         inkscape:connector-curvature="0"
         style="fill:#009879;fill-opacity:1" /><path
         id="path92"
         d="m 550.859,197.407 h -6.423 c -2.282,0 -4.132,1.854 -4.132,4.132 v 12.858 c 0,2.274 1.85,4.128 4.132,4.128 h 6.423 c 2.279,0 4.132,-1.854 4.132,-4.128 v -12.858 c 0,-2.279 -1.853,-4.132 -4.132,-4.132 z m 1.38,16.99 c 0,0.763 -0.617,1.376 -1.38,1.376 h -6.423 c -0.762,0 -1.376,-0.613 -1.376,-1.376 v -12.858 c 0,-0.758 0.614,-1.372 1.376,-1.372 h 6.423 c 0.763,0 1.38,0.613 1.38,1.372 z"
         inkscape:connector-curvature="0"
         style="fill:#009879;fill-opacity:1" /><path
         id="path94"
         d="m 511.637,197.55 c -0.43,-0.222 -0.941,-0.188 -1.337,0.087 l -7.109,4.956 c -0.585,0.411 -0.731,1.213 -0.321,1.804 0.406,0.584 1.217,0.728 1.8,0.32 l 5.081,-3.54 v 16.054 c 0,0.713 0.58,1.293 1.292,1.293 0.716,0 1.296,-0.58 1.296,-1.293 v -18.532 c -0.006,-0.482 -0.272,-0.923 -0.702,-1.149 z"
         inkscape:connector-curvature="0"
         style="fill:#009879;fill-opacity:1" /><path
         id="path96"
         d="m 473.636,197.55 c -0.43,-0.222 -0.941,-0.188 -1.337,0.087 l -7.109,4.956 c -0.585,0.411 -0.731,1.213 -0.321,1.804 0.406,0.584 1.217,0.728 1.8,0.32 l 5.081,-3.54 v 16.054 c 0,0.713 0.58,1.293 1.292,1.293 0.716,0 1.296,-0.58 1.296,-1.293 v -18.532 c -0.005,-0.482 -0.272,-0.923 -0.702,-1.149 z"
         inkscape:connector-curvature="0"
         style="fill:#009879;fill-opacity:1" /><path
         id="path98"
         d="m 436.134,196.309 c -0.43,-0.223 -0.941,-0.189 -1.337,0.086 l -7.11,4.956 c -0.584,0.411 -0.73,1.212 -0.32,1.803 0.406,0.584 1.217,0.727 1.8,0.321 l 5.081,-3.541 v 16.056 c 0,0.711 0.58,1.291 1.292,1.291 0.716,0 1.295,-0.58 1.295,-1.291 v -18.534 c -0.004,-0.481 -0.271,-0.921 -0.701,-1.147 z"
         inkscape:connector-curvature="0"
         style="fill:#009879;fill-opacity:1" /></g></g><g
     id="g4367"
     transform="matrix(1.2808906,0,0,1.2808906,-14.602153,8.2867544)"
     style="fill:#009879;fill-opacity:1"><path
       inkscape:connector-curvature="0"
       d="M 42.807,316.288 H 56.28 v 3.818 h -8.611 v 5.971 h 8.194 v 3.823 h -8.194 v 10.624 h -4.862 z"
       id="path101"
       style="fill:#009879;fill-opacity:1" /><path
       inkscape:connector-curvature="0"
       d="m 60.03,316.288 h 2.396 v 24.236 H 60.03 Z"
       id="path103"
       style="fill:#009879;fill-opacity:1" /><path
       inkscape:connector-curvature="0"
       d="m 68.12,316.288 h 6.25 c 4.629,-0.069 7.002,2.025 7.119,6.283 -0.023,1.576 -0.544,2.836 -1.562,3.785 -1.019,0.973 -2.292,1.574 -3.82,1.806 v 0.071 c 0.926,0.114 1.597,0.415 2.014,0.9 0.23,0.232 0.429,0.522 0.59,0.869 0.186,0.348 0.359,0.73 0.521,1.146 l 4.132,9.376 h -2.638 l -3.508,-8.194 c -0.648,-1.506 -1.32,-2.442 -2.014,-2.813 -0.347,-0.208 -0.741,-0.334 -1.181,-0.383 -0.44,-0.021 -0.949,-0.035 -1.527,-0.035 h -1.979 v 11.426 H 68.12 Z m 2.397,10.729 h 2.535 c 1.504,0.023 2.87,-0.301 4.098,-0.971 1.249,-0.672 1.897,-1.829 1.944,-3.475 0,-0.994 -0.163,-1.781 -0.486,-2.359 -0.325,-0.579 -0.764,-0.996 -1.319,-1.252 -0.556,-0.278 -1.204,-0.45 -1.945,-0.52 -0.741,-0.046 -1.528,-0.07 -2.361,-0.07 h -2.465 v 8.647 z"
       id="path105"
       style="fill:#009879;fill-opacity:1" /><path
       inkscape:connector-curvature="0"
       d="m 87.356,316.288 h 3.716 l 8.854,21.32 8.89,-21.32 h 3.437 v 24.236 h -2.395 v -21.843 h -0.07 l -8.819,21.843 H 98.92 l -9.098,-21.843 h -0.069 v 21.843 h -2.397 z"
       id="path107"
       style="fill:#009879;fill-opacity:1" /><path
       inkscape:connector-curvature="0"
       d="m 140.694,340.524 h -2.847 L 131.7,318.997 h -0.069 l -6.251,21.527 h -2.882 l -6.945,-24.236 h 2.397 l 6.042,21.527 h 0.07 l 6.215,-21.527 h 2.882 l 6.112,21.527 h 0.069 l 6.077,-21.527 h 2.292 z"
       id="path109"
       style="fill:#009879;fill-opacity:1" /><path
       inkscape:connector-curvature="0"
       d="m 156.91,316.288 h 2.708 l 9.619,24.236 h -2.501 l -2.603,-6.494 h -12.175 l -2.585,6.494 h -2.395 z m -4.055,15.659 h 10.481 l -5.244,-13.369 z"
       id="path111"
       style="fill:#009879;fill-opacity:1" /><path
       inkscape:connector-curvature="0"
       d="m 172.746,316.288 h 6.25 c 4.63,-0.069 7.003,2.025 7.119,6.283 -0.022,1.576 -0.544,2.836 -1.562,3.785 -1.019,0.973 -2.292,1.574 -3.819,1.806 v 0.071 c 0.926,0.114 1.597,0.415 2.014,0.9 0.231,0.232 0.428,0.522 0.59,0.869 0.185,0.348 0.358,0.73 0.521,1.146 l 4.131,9.376 h -2.639 l -3.508,-8.194 c -0.647,-1.506 -1.32,-2.442 -2.015,-2.813 -0.346,-0.208 -0.74,-0.334 -1.18,-0.383 -0.439,-0.021 -0.949,-0.035 -1.527,-0.035 h -1.979 v 11.426 h -2.396 z m 2.396,10.729 h 2.534 c 1.505,0.023 2.871,-0.301 4.098,-0.971 1.25,-0.672 1.897,-1.829 1.945,-3.475 0,-0.994 -0.162,-1.781 -0.486,-2.359 -0.325,-0.579 -0.763,-0.996 -1.319,-1.252 -0.556,-0.278 -1.204,-0.45 -1.945,-0.52 -0.741,-0.046 -1.528,-0.07 -2.362,-0.07 h -2.464 v 8.647 z"
       id="path113"
       style="fill:#009879;fill-opacity:1" /><path
       inkscape:connector-curvature="0"
       d="m 191.983,316.288 h 11.877 v 2.082 h -9.48 v 8.646 h 8.994 v 2.082 h -8.994 v 9.342 h 9.897 v 2.084 h -12.293 v -24.236 z"
       id="path115"
       style="fill:#009879;fill-opacity:1" /></g><g
     transform="matrix(1.2808906,0,0,1.2808906,-15.68076,8.2837758)"
     id="g4377"
     style="fill:#009879;fill-opacity:1"><path
       inkscape:connector-curvature="0"
       d="m 225.77,316.288 h 5.488 l 9.516,24.236 h -5.383 l -2.084,-5.556 h -9.827 l -2.119,5.556 h -5.035 z m 2.675,4.86 h -0.068 l -3.508,10 h 7.084 z"
       id="path117"
       style="fill:#009879;fill-opacity:1" /><path
       inkscape:connector-curvature="0"
       d="m 243.758,316.288 h 3.022 l 12.327,21.32 h 0.069 v -21.32 h 2.397 v 24.236 h -3.229 L 246.223,319.62 h -0.069 v 20.904 h -2.396 z"
       id="path119"
       style="fill:#009879;fill-opacity:1" /><path
       inkscape:connector-curvature="0"
       d="m 274.629,316.288 h 2.71 l 9.618,24.236 h -2.5 l -2.604,-6.494 h -12.174 l -2.583,6.494 H 264.7 Z m -4.055,15.659 h 10.479 l -5.243,-13.369 z"
       id="path121"
       style="fill:#009879;fill-opacity:1" /><path
       inkscape:connector-curvature="0"
       d="m 290.187,316.288 h 2.396 v 22.152 h 9.723 v 2.084 h -12.12 v -24.236 z"
       id="path123"
       style="fill:#009879;fill-opacity:1" /><path
       inkscape:connector-curvature="0"
       d="m 308.382,330.246 -8.993,-13.958 h 2.777 l 7.396,11.84 7.604,-11.84 h 2.606 l -8.994,13.958 v 10.278 h -2.396 z"
       id="path125"
       style="fill:#009879;fill-opacity:1" /><path
       inkscape:connector-curvature="0"
       d="m 322.516,337.435 c 1.367,0.949 3.147,1.424 5.349,1.424 1.55,0 2.847,-0.405 3.889,-1.218 1.019,-0.808 1.54,-2.06 1.562,-3.749 -0.023,-1.182 -0.602,-2.176 -1.736,-2.986 -0.509,-0.416 -1.101,-0.809 -1.772,-1.18 -0.67,-0.369 -1.353,-0.741 -2.048,-1.111 -0.695,-0.393 -1.368,-0.811 -2.014,-1.25 -0.671,-0.416 -1.274,-0.88 -1.806,-1.389 -1.134,-0.997 -1.713,-2.258 -1.736,-3.785 0.023,-1.968 0.775,-3.517 2.257,-4.652 1.436,-1.088 3.242,-1.644 5.417,-1.668 0.625,0 1.366,0.047 2.224,0.138 0.856,0.142 1.702,0.36 2.534,0.662 l -0.381,2.188 c -1.181,-0.603 -2.651,-0.901 -4.411,-0.901 -0.624,0 -1.238,0.055 -1.84,0.171 -0.602,0.14 -1.17,0.383 -1.701,0.73 -0.487,0.301 -0.893,0.717 -1.216,1.249 -0.324,0.556 -0.486,1.228 -0.486,2.016 0,0.576 0.162,1.111 0.486,1.596 0.324,0.485 0.741,0.915 1.25,1.286 0.533,0.393 1.135,0.762 1.806,1.11 0.649,0.37 1.321,0.754 2.015,1.146 1.458,0.695 2.732,1.575 3.82,2.641 0.532,0.508 0.961,1.109 1.285,1.804 0.3,0.694 0.451,1.493 0.451,2.396 -0.046,2.409 -0.891,4.155 -2.534,5.244 -1.621,1.065 -3.427,1.598 -5.417,1.598 -2.362,-0.05 -4.19,-0.42 -5.486,-1.111 z"
       id="path127"
       style="fill:#009879;fill-opacity:1" /><path
       inkscape:connector-curvature="0"
       d="m 340.227,316.288 h 2.395 v 24.236 h -2.395 z"
       id="path129"
       style="fill:#009879;fill-opacity:1" /><path
       inkscape:connector-curvature="0"
       d="m 347.588,337.435 c 1.367,0.949 3.147,1.424 5.348,1.424 1.55,0 2.847,-0.405 3.889,-1.218 1.018,-0.808 1.539,-2.06 1.562,-3.749 -0.024,-1.182 -0.603,-2.176 -1.736,-2.986 -0.51,-0.416 -1.102,-0.809 -1.773,-1.18 -0.671,-0.369 -1.354,-0.741 -2.047,-1.111 -0.695,-0.393 -1.367,-0.811 -2.014,-1.25 -0.671,-0.416 -1.274,-0.88 -1.806,-1.389 -1.134,-0.997 -1.714,-2.258 -1.735,-3.785 0.021,-1.968 0.774,-3.517 2.257,-4.652 1.435,-1.088 3.241,-1.644 5.415,-1.668 0.625,0 1.368,0.047 2.224,0.138 0.856,0.142 1.702,0.36 2.536,0.662 l -0.382,2.188 c -1.18,-0.603 -2.651,-0.901 -4.412,-0.901 -0.624,0 -1.238,0.055 -1.839,0.171 -0.603,0.14 -1.17,0.383 -1.701,0.73 -0.486,0.301 -0.893,0.717 -1.215,1.249 -0.324,0.556 -0.486,1.228 -0.486,2.016 0,0.576 0.162,1.111 0.486,1.596 0.323,0.485 0.74,0.915 1.25,1.286 0.532,0.393 1.135,0.762 1.806,1.11 0.646,0.37 1.319,0.754 2.013,1.146 1.459,0.695 2.732,1.575 3.819,2.641 0.533,0.508 0.962,1.109 1.286,1.804 0.3,0.694 0.451,1.493 0.451,2.396 -0.046,2.409 -0.891,4.155 -2.534,5.244 -1.622,1.065 -3.428,1.598 -5.418,1.598 -2.362,-0.05 -4.191,-0.42 -5.487,-1.111 z"
       id="path131"
       style="fill:#009879;fill-opacity:1" /></g><g
     transform="matrix(1.2808906,0,0,1.2808906,-16.626183,8.2863376)"
     id="g4391"
     style="fill:#009879;fill-opacity:1"><path
       inkscape:connector-curvature="0"
       d="m 382.661,316.288 h 2.708 l 9.621,24.236 h -2.502 l -2.604,-6.494 h -12.176 l -2.583,6.494 h -2.396 z m -4.056,15.659 h 10.479 l -5.243,-13.369 z"
       id="path133"
       style="fill:#009879;fill-opacity:1" /><path
       inkscape:connector-curvature="0"
       d="m 398.113,316.288 h 3.021 l 12.328,21.32 h 0.067 v -21.32 h 2.398 v 24.236 h -3.23 l -12.12,-20.904 h -0.069 v 20.904 h -2.396 v -24.236 z"
       id="path135"
       style="fill:#009879;fill-opacity:1" /><path
       inkscape:connector-curvature="0"
       d="m 421.379,316.288 h 6.008 c 4.304,0.046 7.418,1.168 9.34,3.367 1.878,2.201 2.802,5.104 2.778,8.716 -0.046,4.329 -1.354,7.443 -3.924,9.34 -2.547,1.876 -5.868,2.813 -9.966,2.813 h -4.236 z m 2.397,22.152 h 1.978 c 7.386,0.162 11.17,-3.239 11.357,-10.207 -0.048,-3.658 -0.996,-6.239 -2.849,-7.744 -1.875,-1.436 -4.201,-2.144 -6.979,-2.119 h -3.508 v 20.07 z"
       id="path137"
       style="fill:#009879;fill-opacity:1" /></g><g
     transform="matrix(1.2808906,0,0,1.2808906,-14.602133,9.2869821)"
     id="g4408"
     style="fill:#009879;fill-opacity:1"><path
       inkscape:connector-curvature="0"
       d="m 673.16105,319.32529 h -6.944 v -3.818 h 18.75 v 3.818 h -6.946 v 20.418 h -4.859 v -20.418 z"
       id="path153"
       style="fill:#009879;fill-opacity:1" /><path
       inkscape:connector-curvature="0"
       d="m 687.11905,327.62429 c -0.022,-3.401 0.845,-6.319 2.604,-8.75 1.736,-2.453 4.421,-3.715 8.056,-3.785 3.656,0.07 6.366,1.332 8.126,3.785 1.735,2.431 2.579,5.349 2.534,8.75 -0.023,3.775 -0.926,6.784 -2.708,9.029 -1.807,2.291 -4.457,3.46 -7.952,3.507 -3.473,-0.047 -6.099,-1.216 -7.883,-3.507 -1.806,-2.245 -2.73,-5.253 -2.777,-9.029 z m 10.66,-10.449 c -2.824,0.067 -4.908,1.155 -6.251,3.263 -1.342,2.106 -2.013,4.503 -2.013,7.187 0,2.686 0.671,5.061 2.013,7.119 1.343,2.176 3.427,3.288 6.251,3.334 2.848,-0.046 4.942,-1.158 6.286,-3.334 1.317,-2.059 1.979,-4.434 1.979,-7.119 0,-2.684 -0.661,-5.08 -1.979,-7.187 -1.344,-2.108 -3.438,-3.196 -6.286,-3.263 z"
       id="path155"
       style="fill:#009879;fill-opacity:1" /><path
       inkscape:connector-curvature="0"
       d="m 712.18805,327.62429 c -0.021,-3.401 0.845,-6.319 2.604,-8.75 1.737,-2.453 4.424,-3.715 8.056,-3.785 3.658,0.07 6.364,1.332 8.126,3.785 1.736,2.431 2.58,5.349 2.535,8.75 -0.024,3.775 -0.928,6.784 -2.708,9.029 -1.808,2.291 -4.457,3.46 -7.953,3.507 -3.473,-0.047 -6.1,-1.216 -7.882,-3.507 -1.805,-2.245 -2.731,-5.253 -2.778,-9.029 z m 10.66,-10.449 c -2.824,0.067 -4.909,1.155 -6.25,3.263 -1.341,2.106 -2.013,4.503 -2.013,7.187 0,2.686 0.672,5.061 2.013,7.119 1.341,2.176 3.426,3.288 6.25,3.334 2.847,-0.046 4.943,-1.158 6.285,-3.334 1.319,-2.059 1.98,-4.434 1.98,-7.119 0,-2.684 -0.661,-5.08 -1.98,-7.187 -1.341,-2.108 -3.438,-3.196 -6.285,-3.263 z"
       id="path157"
       style="fill:#009879;fill-opacity:1" /><path
       inkscape:connector-curvature="0"
       d="m 738.16205,315.50729 h 2.396 v 22.152 h 9.724 v 2.084 h -12.119 v -24.236 z"
       id="path159"
       style="fill:#009879;fill-opacity:1" /></g><g
     transform="matrix(1.2808906,0,0,1.2808906,-19.6179,8.2856971)"
     id="g4396"
     style="fill:#009879;fill-opacity:1"><path
       inkscape:connector-curvature="0"
       d="m 471.87099,340.178 c -1.807,0.484 -3.646,0.739 -5.522,0.764 -3.981,0 -7.164,-1.006 -9.55,-3.021 -2.477,-1.967 -3.727,-5 -3.751,-9.097 0.162,-8.543 4.596,-12.859 13.301,-12.953 1.736,0 3.564,0.336 5.486,1.007 l -0.346,4.099 c -0.903,-0.509 -1.783,-0.869 -2.641,-1.076 -0.856,-0.14 -1.725,-0.209 -2.605,-0.209 -2.522,0.024 -4.49,0.856 -5.901,2.5 -1.482,1.644 -2.222,3.737 -2.222,6.285 0,2.522 0.729,4.571 2.188,6.146 1.436,1.644 3.448,2.477 6.041,2.5 0.995,0 1.991,-0.104 2.986,-0.313 0.974,-0.185 1.747,-0.416 2.327,-0.694 z"
       id="path139"
       style="fill:#009879;fill-opacity:1" /><path
       inkscape:connector-curvature="0"
       d="m 475.74017,328.406 c -0.022,-3.401 0.846,-6.319 2.604,-8.75 1.735,-2.453 4.421,-3.715 8.057,-3.785 3.657,0.07 6.365,1.332 8.124,3.785 1.736,2.431 2.581,5.349 2.536,8.75 -0.023,3.775 -0.927,6.784 -2.71,9.029 -1.805,2.291 -4.456,3.46 -7.95,3.507 -3.473,-0.047 -6.102,-1.216 -7.883,-3.507 -1.806,-2.245 -2.734,-5.253 -2.778,-9.029 z m 10.661,-10.449 c -2.825,0.067 -4.908,1.155 -6.25,3.263 -1.344,2.106 -2.015,4.503 -2.015,7.187 0,2.686 0.671,5.061 2.015,7.119 1.342,2.176 3.425,3.288 6.25,3.334 2.847,-0.046 4.942,-1.158 6.284,-3.334 1.32,-2.059 1.979,-4.434 1.979,-7.119 0,-2.684 -0.659,-5.08 -1.979,-7.187 -1.341,-2.108 -3.437,-3.196 -6.284,-3.263 z"
       id="path141"
       style="fill:#009879;fill-opacity:1" /><path
       inkscape:connector-curvature="0"
       d="m 500.93161,316.2885 h 3.715 l 8.855,21.32 8.889,-21.32 h 3.437 v 24.236 h -2.395 v -21.843 h -0.069 l -8.819,21.843 h -2.05 l -9.097,-21.843 h -0.069 v 21.843 h -2.396 v -24.236 z"
       id="path143"
       style="fill:#009879;fill-opacity:1" /><path
       inkscape:connector-curvature="0"
       d="m 529.69635,316.2885 h 5.973 c 4.885,0 7.384,2.29 7.5,6.875 -0.023,2.244 -0.763,3.948 -2.222,5.104 -1.437,1.179 -3.277,1.771 -5.521,1.771 h -3.335 v 10.486 h -2.395 z m 2.395,11.667 h 1.667 c 0.926,0 1.806,-0.058 2.639,-0.173 0.834,-0.094 1.586,-0.291 2.259,-0.592 0.671,-0.322 1.191,-0.81 1.562,-1.456 0.371,-0.65 0.557,-1.507 0.557,-2.571 -0.047,-3.149 -1.646,-4.745 -4.791,-4.793 h -3.892 v 9.585 z"
       id="path145"
       style="fill:#009879;fill-opacity:1" /><path
       inkscape:connector-curvature="0"
       d="m 556.9701,316.2885 h 2.709 l 9.617,24.236 h -2.499 l -2.603,-6.494 h -12.176 l -2.585,6.494 h -2.395 z m -4.054,15.659 h 10.479 l -5.242,-13.369 z"
       id="path147"
       style="fill:#009879;fill-opacity:1" /><path
       inkscape:connector-curvature="0"
       d="m 573.16586,316.28883 h 6.25 c 4.63,-0.069 7.003,2.025 7.118,6.283 -0.022,1.576 -0.544,2.836 -1.561,3.785 -1.021,0.973 -2.292,1.574 -3.822,1.806 v 0.071 c 0.927,0.114 1.599,0.415 2.016,0.9 0.23,0.232 0.429,0.522 0.59,0.869 0.184,0.348 0.357,0.73 0.521,1.146 l 4.132,9.376 h -2.64 l -3.507,-8.194 c -0.647,-1.506 -1.319,-2.442 -2.015,-2.813 -0.349,-0.208 -0.739,-0.334 -1.179,-0.383 -0.44,-0.021 -0.949,-0.035 -1.529,-0.035 h -1.979 v 11.426 h -2.396 v -24.237 z m 2.395,10.729 h 2.533 c 1.506,0.023 2.873,-0.301 4.1,-0.971 1.249,-0.672 1.898,-1.829 1.944,-3.475 0,-0.994 -0.161,-1.781 -0.486,-2.359 -0.324,-0.579 -0.764,-0.996 -1.318,-1.252 -0.556,-0.278 -1.205,-0.45 -1.945,-0.52 -0.742,-0.046 -1.528,-0.07 -2.362,-0.07 h -2.465 v 8.647 z"
       id="path149"
       style="fill:#009879;fill-opacity:1" /><path
       inkscape:connector-curvature="0"
       d="m 592.27859,316.2885 h 2.396 v 24.236 h -2.396 z"
       id="path103-3"
       style="fill:#009879;fill-opacity:1" /><path
       inkscape:connector-curvature="0"
       d="m 598.85536,337.4335 c 1.367,0.949 3.147,1.424 5.348,1.424 1.55,0 2.847,-0.405 3.889,-1.218 1.018,-0.808 1.539,-2.06 1.562,-3.749 -0.024,-1.182 -0.603,-2.176 -1.736,-2.986 -0.51,-0.416 -1.102,-0.809 -1.773,-1.18 -0.671,-0.369 -1.354,-0.741 -2.047,-1.111 -0.695,-0.393 -1.367,-0.811 -2.014,-1.25 -0.671,-0.416 -1.274,-0.88 -1.806,-1.389 -1.134,-0.997 -1.714,-2.258 -1.735,-3.785 0.021,-1.968 0.774,-3.517 2.257,-4.652 1.435,-1.088 3.241,-1.644 5.415,-1.668 0.625,0 1.368,0.047 2.224,0.138 0.856,0.142 1.702,0.36 2.536,0.662 l -0.382,2.188 c -1.18,-0.603 -2.651,-0.901 -4.412,-0.901 -0.624,0 -1.238,0.055 -1.839,0.171 -0.603,0.14 -1.17,0.383 -1.701,0.73 -0.486,0.301 -0.893,0.717 -1.215,1.249 -0.324,0.556 -0.486,1.228 -0.486,2.016 0,0.576 0.162,1.111 0.486,1.596 0.323,0.485 0.74,0.915 1.25,1.286 0.532,0.393 1.135,0.762 1.806,1.11 0.646,0.37 1.319,0.754 2.013,1.146 1.459,0.695 2.732,1.575 3.819,2.641 0.533,0.508 0.962,1.109 1.286,1.804 0.3,0.694 0.451,1.493 0.451,2.396 -0.046,2.409 -0.891,4.155 -2.534,5.244 -1.622,1.065 -3.428,1.598 -5.418,1.598 -2.362,-0.05 -4.191,-0.42 -5.487,-1.111 z"
       id="path131-6"
       style="fill:#009879;fill-opacity:1" /><path
       inkscape:connector-curvature="0"
       d="m 615.9205,328.406 c -0.022,-3.401 0.845,-6.319 2.604,-8.75 1.736,-2.453 4.421,-3.715 8.056,-3.785 3.656,0.07 6.366,1.332 8.126,3.785 1.735,2.431 2.579,5.349 2.534,8.75 -0.023,3.775 -0.926,6.784 -2.708,9.029 -1.807,2.291 -4.457,3.46 -7.952,3.507 -3.473,-0.047 -6.099,-1.216 -7.883,-3.507 -1.806,-2.245 -2.73,-5.253 -2.777,-9.029 z m 10.66,-10.449 c -2.824,0.067 -4.908,1.155 -6.251,3.263 -1.342,2.106 -2.013,4.503 -2.013,7.187 0,2.686 0.671,5.061 2.013,7.119 1.343,2.176 3.427,3.288 6.251,3.334 2.848,-0.046 4.942,-1.158 6.286,-3.334 1.317,-2.059 1.979,-4.434 1.979,-7.119 0,-2.684 -0.661,-5.08 -1.979,-7.187 -1.344,-2.108 -3.438,-3.196 -6.286,-3.263 z"
       id="path155-7"
       style="fill:#009879;fill-opacity:1" /><path
       inkscape:connector-curvature="0"
       d="m 641.11194,316.2885 h 3.021 l 12.328,21.32 h 0.067 v -21.32 h 2.398 v 24.236 h -3.23 l -12.12,-20.904 h -0.069 v 20.904 h -2.396 v -24.236 z"
       id="path135-5"
       style="fill:#009879;fill-opacity:1" /></g><path
     d="m 404.0928,334.56417 h 55.07446 c -32.27332,-35.47042 -51.94908,-82.60847 -51.94908,-134.34236 0,-51.73389 19.67576,-98.87067 51.9478,-134.342372 h -47.37246 -7.70072 -123.39843 -41.82108 -13.2521 c -25.5512,38.495882 -40.44668,84.675832 -40.44668,134.342372 0,49.66653 14.89548,95.84776 40.44668,134.34236 h 55.07446 C 253.0156,304.14174 234.61561,265.13222 229.93523,222.00591 h 134.68309 c 3.67359,41.36636 17.70191,79.75338 39.47448,112.55826 z M 381.16742,109.44893 c -8.71005,21.6304 -14.40105,44.79787 -16.5491,68.98621 H 229.93523 c 2.67066,-24.61488 9.81034,-47.8861 20.59929,-68.98621 z"
     id="A_1_"
     inkscape:connector-curvature="0"
     style="fill:#69c0ac" /><g
     transform="matrix(1.2808906,0,0,1.2808906,-14.602153,8.2867544)"
     id="F_1_"><path
       id="path163"
       d="m 159.833,78.978 c 4.565,-11.936 10.249,-23.316 16.925,-34.016 H 85.973 49.89 42.977 C 23.03,75.017 11.4,111.07 11.4,149.844 c 0,38.775 11.629,74.829 31.577,104.882 H 85.974 C 64.364,230.975 49.999,200.52 46.345,166.851 h 50.682 c -0.378,-5.623 -0.589,-11.291 -0.589,-17.009 0,-5.717 0.21,-11.385 0.589,-17.006 H 46.345 C 48.43,113.619 54.004,95.451 62.427,78.978 Z"
       inkscape:connector-curvature="0"
       style="fill:#69c0ac" /></g><path
     id="path12"
     style="display:inline;fill:#000000;fill-opacity:0.16;stroke:none;stroke-width:1.32907"
     d="m 732.77539,74.474609 -31.34765,30.349611 c 24.59075,24.36392 39.85351,58.12762 39.85351,95.39648 0,37.27197 -15.26364,71.03968 -39.85743,95.4043 l 31.35157,30.34375 c 27.32984,-27.35304 45.74691,-63.57677 50.68164,-103.96485 h 172.6875 V 178.43555 H 783.45703 C 778.52191,138.04889 760.10422,101.82684 732.77539,74.474609 Z" /></svg>
